<svg xmlns="http://www.w3.org/2000/svg" width="19.25" height="18" viewBox="0 0 19.25 18" overflow="scroll"><style>.st0{fill:#030104}</style><g id="Layer_1_1_"><path class="st0" d="M19.006 2.345A1.003 1.003 0 0 0 18.25 2H4.431L4.236.836A1 1 0 0 0 3.25 0H1a1 1 0 1 0 0 2h1.403l1.86 11.164c.008.045.031.082.045.124.016.053.029.103.054.151a.982.982 0 0 0 .12.179c.031.039.059.078.095.112a.96.96 0 0 0 .193.13c.038.021.071.049.112.065a.97.97 0 0 0 .367.075H16.25a1 1 0 1 0 0-2H6.097l-.166-1H17.25a1 1 0 0 0 .99-.858l1-7a1.002 1.002 0 0 0-.234-.797zM17.097 4l-.285 2H13.25V4h3.847zM12.25 4v2h-3V4h3zm0 3v2h-3V7h3zm-4-3v2h-3a.481.481 0 0 0-.148.03L4.764 4H8.25zM5.264 7H8.25v2H5.597l-.333-2zm7.986 2V7h3.418l-.285 2H13.25z"/><circle class="st0" cx="6.75" cy="16.5" r="1.5"/><circle class="st0" cx="15.75" cy="16.5" r="1.5"/></g></svg>