<!-- Generator: Adobe Illustrator 19.0.1, SVG Export Plug-In  -->
<svg version="1.1"
	 xmlns="http://www.w3.org/2000/svg" xmlns:xlink="http://www.w3.org/1999/xlink" xmlns:a="http://ns.adobe.com/AdobeSVGViewerExtensions/3.0/"
	 x="0px" y="0px" width="144.6780853px" height="134.6500092px" viewBox="0 0 144.6780853 134.6500092"
	 style="overflow:scroll;enable-background:new 0 0 144.6780853 134.6500092;" xml:space="preserve">
<style type="text/css">
	.st0{fill:#FFFFFF;}
	.st1{fill:#FFFFFF;}
	.st2{fill:#FFFFFF;}
	.st3{fill:#FFFFFF;}
	.st4{fill:#FFFFFF;}
	.st5{fill:#FFFFFF;}
	.st6{fill:#FFFFFF;}
	.st7{fill:#FFFFFF;}
	.st8{fill:#FFFFFF;}
	.st9{fill:#FFFFFF;}
	.st10{fill:#FFFFFF;}
	.st11{fill:#FFFFFF;}
	.st12{fill:#FFFFFF;}
	.st13{fill:#FFFFFF;}
	.st14{fill:#FFFFFF;}
</style>
<defs>
</defs>
<path class="st0" d="M18.6827984,134.0500183l-2.223299-5.8148041H7.4500003l-2.1455002,5.8148041H0l9.048399-23.4020004
	c0.6249008-0.2479935,1.833601-0.4964981,3.1210995-0.4964981c1.1310997,0,2.9637012,0.248497,3.6662006,2.1987
	l8.3856983,21.6999969h-5.5386009L18.6827984,134.0500183z M12.0130978,114.5840149l-3.5495987,10.1049957h6.9825993
	L12.0130978,114.5840149z"/>
<path class="st0" d="M35.0657997,134.0500183h-7.8785v-23.5790024c2.651701-0.2480011,4.9926014-0.3897018,7.1769009-0.3897018
	c7.8396988,0,10.2970009,2.2334976,10.2970009,6.0627975c0,3.0848007-2.2232018,4.7870026-3.9393005,5.3541031
	c1.8715019,0.4611969,5.148098,1.6663971,5.148098,5.6026001c0,5.4604034-4.2512016,6.9494019-10.8040009,6.9494019
	L35.0657997,134.0500183z M34.5196991,113.4850159c-0.9746017,0-1.5595016,0.0706024-1.9891014,0.1064072v6.5950012h2.5740013
	c2.5351982,0,4.0956993-1.5246964,4.0956993-3.7586975C39.2002983,114.1942291,37.3666992,113.4850235,34.5196991,113.4850159z
	 M34.7150002,130.5400238c3.5495987,0,5.6940994-0.6381073,5.6940994-3.6166c0-2.5530014-2.0667992-3.5102005-5.0313988-3.5102005
	h-2.8470993v7.1268005H34.7150002z"/>
<path class="st0" d="M54.7657967,126.6800156v-16.3460007l-0.6249008-0.0709991
	c-0.3507004-0.0353012-0.7403984-0.1063995-1.0922012-0.1063995c-1.4429016,0-3.3931007,0.3900986-3.3931007,2.7658005v21.1330032
	h4.5251999l11.1160049-15.6009979v15.6009979h5.1091003v-23.6860046c-0.5072021-0.1063004-1.4817963-0.2126999-2.3796997-0.2126999
	c-1.6771011,0-2.456398,0.4964981-3.1977997,1.5958023l-10.0630035,14.927002L54.7657967,126.6800156z"/>
<path class="st0" d="M88.0368042,109.9800186h-5.9292984l-8.7753983,23.7210007
	c0.5072937,0.1773987,1.6772003,0.3549042,2.8859024,0.3549042c1.9890976,0,3.0812988-0.9220123,3.6661987-2.6242065
	l5.3443985-16.1329956l5.4598999,16.2389984c0.5859985,1.6663971,1.5994034,2.517807,3.588501,2.517807
	c0.8190994,0,1.5994034-0.1063995,2.6527023-0.3549042l-8.8928986-23.7210007L88.0368042,109.9800186z"/>
<path class="st0" d="M110.1898041,134.6500092c-8.4245987,0-11.701004-5.8153076-11.701004-12.5169983
	c0-6.6303024,3.7050018-12.3030014,12.0130005-12.3030014c8.2303009,0,11.6230011,5.3893967,11.6230011,12.2679977
	C122.1248016,128.9411011,118.7317047,134.6500092,110.1898041,134.6500092z M110.4628906,113.730011
	c-4.7973022,0-6.4356003,3.8646011-6.4356003,8.4030991s1.638298,8.6516037,6.3190002,8.6516037
	c4.680603,0,6.2789993-4.1130981,6.2789993-8.6515961S115.0268936,113.7300186,110.4628906,113.730011z"/>
<path class="st0" d="M134.0298004,125.5800171h-1.872406v8.4741974h-5.3822021v-23.6149979
	c2.339798-0.2479935,4.9138031-0.3544006,6.9039001-0.3544006c7.6054077,0,10.9989929,2.4820023,10.9989929,7.197403
	c0,6.1697006-4.9138031,8.2973022-10.647995,8.2973022L134.0298004,125.5800171z M134.225174,113.5240173
	c-0.8191986,0-1.521698,0.0353012-2.1067047,0.1063995v8.5093994h1.2875061c3.7828064,0,5.8117065-1.169899,5.8117065-4.6091003
	c0-2.8721008-2.0677948-4.0066986-4.9924927-4.0066986H134.225174z"/>
<path class="st1" d="M135.7798004,77.8750153l-25.0550003-37.1049995
	c-20.2320023-25.9360008-32.0670013-11.4020004-33.2439957-9.8183002l-0.0001907,0.020401l-0.0909958,0.1270008l0.2799988,0.4146004
	c-0.0013123,0.0007-0.0026093,0.0011005-0.0038147,0.0016994l-0.278801-0.4127998l-0.1464996,0.2045994l28.1149979,41.6349983
	l0.0001984,0.0241013l-35.3769989-0.0032043c0,0,4.5842972,21.7649994,29.0469971,22.4229965
	c0,0,1.2116013-0.0006027,9.7529984-0.0006027h0.0001984l17.7020035-0.0002975
	c4.1511993-0.0022964,7.9627991-2.2945023,9.9098053-5.9613037c1.9474945-3.6667023,1.7118073-8.1087036-0.6110077-11.548996
	L135.7798004,77.8750153z"/>
<path class="st2" d="M86.8208008,4.943315c-2.0289993-3.0055001-5.3836975-4.8379002-9.0014038-4.9356999l0.0001068-0.0075
	c-0.0426102-0.0006-0.0848083,0.0023-0.1273117,0.0023c-0.0181961-0.0003-0.0361938-0.0021-0.0543976-0.0023v0.0032
	c-3.580101,0.0113-7.0121994,1.7801-9.106102,4.7403002L14.7446899,80.1596146
	c-3.5797997,5.0632019-9.7796993,13.8249969-9.7796993,13.8249969s22.0119991,7.6848984,37.1689987-13.6650009
	l35.2570038-49.2169991l0.278801,0.4127998c0.0012054-0.0005989,0.0025024-0.0009995,0.0038147-0.0016994l-0.2799988-0.4146004
	l0.0909958-0.1270008l0.0001907-0.020401c1.2285995-1.6530991,13.8379974-17.4330006,35.7309952,13.4860001
	c0.0093994-0.0037003-26.3950043-39.4949989-26.3950043-39.4949989L86.8208008,4.943315z"/>
<path class="st3" d="M99.1108017,95.332016c0,0,1.2115021-0.0006027,9.7529984-0.0006027
	c14.0839996,0-3.2423019-22.4189987-3.2423019-22.4189987l-35.5579987-0.0031052c0,0,4.5842972,21.7649994,29.0479965,22.4229965
	L99.1108017,95.332016z"/>
<path class="st4" d="M108.0798035,76.367012l0.3516006,0.254097l21.8709946-7.2915039l-0.0066986-0.009903L113.6647034,45.071701
	c-23.326004-33.4370003-36.2799988-13.9829998-36.2799988-13.9829998l28.3040009,41.9150009
	c0,0,1.0339966,1.3401031,2.3905029,3.3628998L108.0798035,76.367012z"/>
<path class="st5" d="M77.8198013,0.000097c-3.5102997,0-7.1584015,1.7331001-9.2878036,4.7435002L14.7449951,80.1595993
	c-3.5797997,5.0632019-9.7796993,13.8249969-9.7796993,13.8249969s15.4189987,1.5646973,30.5749989-19.784996l25.0250015-37.4980011
	c0,0,21.3310051-37.2989998,32.6970024-22.2199993c0,0-6.0863037-9.3940001-7.5604019-10.9429998
	C83.4510956,1.1728001,80.5408936,0,77.8197937,0L77.8198013,0.000097z"/>
<path class="st6" d="M135.7498016,77.8830185L111.790802,42.4340172
	C101.7378006,28.9480171,93.1478043,24.594017,86.2277985,25.6520176l31.7290039,47.2980042
	c0,0,17.326004,22.4440002,3.2422028,22.4440002l5.2521973-0.0003967c4.1511993-0.0023041,7.9627991-2.2944031,9.9098969-5.9612961
	c1.9474945-3.6667023,1.7118073-8.1087036-0.611084-11.548996L135.7498016,77.8830185z"/>
<polygon class="st7" points="114.839798,46.4400139 114.8298035,46.4440155 125.8498001,62.7440147 "/>
</svg>
