<svg xmlns="http://www.w3.org/2000/svg" width="425.197" height="425.197" viewBox="0 0 425.197 425.197" overflow="scroll"><path d="M0 141.733h141.732V0h141.732v141.732h141.733v141.731l-141.732.001v141.733H141.733V283.465L0 283.464V141.733z" fill="#090"/><path d="M275.83 171.005c1.068 3.694 1.646 7.854 1.646 12.556 0 8.313-1.822 16.33-5.082 23.673 4.788-3.41 9.083-6.909 13.232-10.125 14.704-11.4 28.583-15.365 39.322-16.026 5.759-.354 15.2-4.791 15.2-10.078H275.83zm-2.1 12.556c0-29.243-26.766-37.174-50.557-40.974-23.98-3.83-51.714-12.392-51.714-38 0-12.557 7.848-25.032 21.313-25.032 19.826 0 23.296 15.035 23.38 17.183.083 2.148-5.771 3.673-6.527 7.93-.91 5.122 1.321 10.244 4.544 14.374 2.876 3.688 7.02 11.153 11.153 10.493 4.424-.708 6.03-8.261 7.27-13.218 1.24-4.957 3.386-9.17 1.321-13.797-2.557-5.73-5.122-2.892-7.104-7.02-1.136-2.365-5.53-26.354-32.053-26.354-18.5 0-35.357 15.284-37.01 32.632-2.365 24.837 7.436 34.2 28.088 43.948 32.177 15.187 65.592 14.54 65.592 35.853 0 20.817-7.103 31.886-19.33 39.983-2.11 1.398-6.123 3.233-10.05 4.584v14.626a82.683 82.683 0 0 0 2.45-.375c27.425-4.626 49.234-29.079 49.234-56.836zm-31.651-12.556H85.049c0 5.287 9.441 9.724 15.2 10.078 10.74.661 24.618 4.626 39.322 16.026 15.018 11.644 31.933 26.972 67.328 28.466v45.02c2.055.378 4.347.584 6.857.584 1.05 0 2.68-.066 4.545-.263v-47.525c18.99-4.16 29.38-20.373 29.38-41.812-.003-4.412-1.814-7.729-5.602-10.574zm-35.181 133.984c3.193 1.947 7.117 2.8 11.4 3.378v-17.582a68.322 68.322 0 0 1-11.4-.17v14.374zm37.753 14.217c-6.113-4.627-14.044-5.7-28.17-7.435-16.723-2.056-21.137-12.577-21.63-23.67-4.34-1.438-8.353-3.442-11.822-6.06-.802 3.78-1.161 7.71-1.161 11.72 0 16.688 17.986 23.776 30.73 25.61 13.218 1.9 25.61 2.395 27.345 3.139 1.753.75 2.809 1.57 3.553 2.395s2.725 1.983 3.965 1.157c1.24-.827.246-4.543-2.81-6.856zm-45.105-51.23c1.07-1.098 2.293-2.054 3.606-2.895v-10.207c-3.179 1.791-5.926 3.796-8.285 6.01-.001 2.747 1.642 5.245 4.68 7.093zm36.348-4.78c0 7.93-10.408 11.73-22.139 11.73-11.73 0-22.635-4.626-22.635-14.043 0-11.62 4.778-15.763 12.032-17.628v-16.316c-15.91 1.23-29.05 15.861-29.05 28.327 0 9.087 1.606 23.331 26.766 30.565 26.435 7.6 56.835-9.087 56.835-25.774 0-8.096-4.145-12.015-9.582-13.713-4.513-1.41-9.867-3.422-26.076 1.257v10.296c2.559-.707 4.835-1.145 7.075-1.145 4.627 0 6.774 1.487 6.774 6.444zm-86.41 92.855h126.228c0-2.065-6.69-5.039-12.474-5.536-5.784-.497-13.544-.814-15.282-2.313-2.396-2.064-6.215-3.494-11.235-4.708-5.122-1.24-18.423-2.313-18.423-9.583V323.82a143.63 143.63 0 0 1-6.233-.742 60.864 60.864 0 0 1-5.167-.98v11.813c0 7.27-13.3 8.343-18.423 9.583-5.02 1.215-8.84 2.644-11.235 4.708-1.738 1.5-9.5 1.818-15.282 2.313-5.781.496-12.473 3.471-12.473 5.536z" fill="#fff"/></svg>