<svg xmlns="http://www.w3.org/2000/svg" width="384.15" height="384.15" viewBox="0 0 384.15 384.15" overflow="scroll"><path d="M353.475 160.075h-322.8c-16.9 0-30.6 14.3-30.6 32s13.7 32 30.6 32h322.8c16.9 0 30.6-14.3 30.6-32s-13.7-32-30.6-32zM353.475 32.075h-322.8c-16.9 0-30.6 14.3-30.6 32s13.7 32 30.6 32h322.8c16.9 0 30.6-14.3 30.6-32s-13.7-32-30.6-32zM353.475 288.075h-322.8c-16.9 0-30.6 14.3-30.6 32s13.7 32 30.6 32h322.8c16.9 0 30.6-14.3 30.6-32s-13.7-32-30.6-32z"/><path d="M373.575 322.675l-130.6-130.6 130.6-130.6c14.1-14.1 14.1-36.8 0-50.9s-36.8-14.1-50.9 0l-130.6 130.6-130.6-130.6c-14.1-14.1-36.8-14.1-50.9 0s-14.1 36.8 0 50.9l130.6 130.6-130.6 130.6c-14.1 14.1-14.1 36.8 0 50.9s36.8 14.1 50.9 0l130.6-130.6 130.6 130.6c14.1 14.1 36.8 14.1 50.9 0 14-14.1 14-36.9 0-50.9z" fill="currentColor"/></svg>