<?xml version="1.0" encoding="UTF-8"?>
<svg enable-background="new 0 0 512 512" version="1.1" viewBox="0 0 512 512" xml:space="preserve" xmlns="http://www.w3.org/2000/svg">
	<path d="m417.4 224h-322.8c-16.9 0-30.6 14.3-30.6 32s13.7 32 30.6 32h322.8c16.9 0 30.6-14.3 30.6-32s-13.7-32-30.6-32z" />
	<path d="m417.4 96h-322.8c-16.9 0-30.6 14.3-30.6 32s13.7 32 30.6 32h322.8c16.9 0 30.6-14.3 30.6-32s-13.7-32-30.6-32z" />
	<path d="m417.4 352h-322.8c-16.9 0-30.6 14.3-30.6 32s13.7 32 30.6 32h322.8c16.9 0 30.6-14.3 30.6-32s-13.7-32-30.6-32z" />
</svg>