<svg xmlns="http://www.w3.org/2000/svg" width="383.992" height="384" viewBox="0 0 383.992 384" overflow="scroll"><path d="M273.51 241.373h-17.501l-6.571-5.486c20.791-25.232 33.922-57.054 33.922-93.257C283.359 63.633 219.897 0 141.14 0 63.457 0 0 63.632 0 142.63s63.452 142.63 142.22 142.63c35.011 0 67.831-13.167 92.991-34.008l6.561 5.487v17.551L351.172 384l32.82-32.914-110.49-109.71.008-.003zm-131.28 0c-54.702 0-98.463-43.887-98.463-98.743 0-54.858 43.761-98.742 98.463-98.742 54.7 0 98.462 43.884 98.462 98.742 0 54.856-43.762 98.743-98.462 98.743z"/></svg>