<?xml version="1.0" encoding="UTF-8"?>
<svg enable-background="new 0 0 512 512" version="1.1" viewBox="0 0 512 512" xml:space="preserve" xmlns="http://www.w3.org/2000/svg">
	<path d="m337.51 305.37h-17.501l-6.571-5.486c20.791-25.232 33.922-57.054 33.922-93.257-1e-3 -78.997-63.463-142.63-142.22-142.63-77.683 0-141.14 63.632-141.14 142.63s63.452 142.63 142.22 142.63c35.011 0 67.831-13.167 92.991-34.008l6.561 5.487v17.551l109.4 109.71 32.82-32.914-110.49-109.71zm-131.28 0c-54.702 0-98.463-43.887-98.463-98.743 0-54.858 43.761-98.742 98.463-98.742 54.7 0 98.462 43.884 98.462 98.742 0 54.856-43.762 98.743-98.462 98.743z" />
</svg>