<?xml version="1.0" encoding="UTF-8"?>
<svg enable-background="new 0 0 144.6728973 134.6545868" version="1.1" viewBox="0 0 144.6728973 134.6545868" xml:space="preserve" xmlns="http://www.w3.org/2000/svg">
<style type="text/css">
	._x005B_Default_x005D_{fill:#FFFFFF;stroke:#1D1D1B;stroke-miterlimit:10;}
	.Round_x0020_Corners_x0020_2_x0020_pt{fill:#FFFFFF;stroke:#1D1D1B;stroke-miterlimit:10;}
	.Live_x0020_Reflect_x0020_X{fill:none;}
	.Bevel_x0020_Soft{fill:url(#h);}
	.Dusk{fill:#FFFFFF;}
	.Pompadour_GS{fill-rule:evenodd;clip-rule:evenodd;fill:#51AEE2;}
	.st0{fill:#575756;}
	.st1{fill:url(#g);}
	.st2{fill:url(#f);}
	.st3{opacity:0.6;fill:url(#e);}
	.st4{opacity:0.6;fill:url(#d);}
	.st5{opacity:0.5;fill:url(#c);}
	.st6{opacity:0.3;fill:url(#b);}
	.st7{opacity:0.5;fill:url(#a);}
</style>
<linearGradient id="h" x1="-350.21" x2="-349.5" y1="-231.12" y2="-230.42" gradientUnits="userSpaceOnUse">
	<stop stop-color="#E6E6EB" offset="0" />
	<stop stop-color="#E2E2E7" offset=".1754" />
	<stop stop-color="#D6D6DB" offset=".35521" />
	<stop stop-color="#C2C3C6" offset=".5371" />
	<stop stop-color="#A5A7A9" offset=".72042" />
	<stop stop-color="#818485" offset=".9031" />
	<stop stop-color="#6B6E6E" offset="1" />
</linearGradient>
	<path class="st0" d="m18.683 134.05l-2.2233-5.8148h-9.0095l-2.1455 5.8148h-5.3045l9.0484-23.402c0.6249-0.24799 1.8336-0.4965 3.1211-0.4965 1.1311 0 2.9637 0.2485 3.6662 2.1987l8.3857 21.7h-5.5386zm-6.6697-19.466l-3.5496 10.105h6.9826l-3.433-10.105z" />
	<path class="st0" d="m35.066 134.05h-7.8785v-23.579c2.6517-0.248 4.9926-0.3897 7.1769-0.3897 7.8397 0 10.297 2.2335 10.297 6.0628 0 3.0848-2.2232 4.787-3.9393 5.3541 1.8715 0.4612 5.1481 1.6664 5.1481 5.6026 0 5.4604-4.2512 6.9494-10.804 6.9494zm-0.5461-20.565c-0.9746 0-1.5595 0.070602-1.9891 0.10641v6.595h2.574c2.5352 0 4.0957-1.5247 4.0957-3.7587 1e-7 -2.2335-1.8336-2.9427-4.6806-2.9427zm0.1953 17.055c3.5496 0 5.6941-0.63811 5.6941-3.6166 0-2.553-2.0668-3.5102-5.0314-3.5102h-2.8471v7.1268h2.1844z" />
	<path class="st0" d="m54.766 126.68v-16.346l-0.6249-0.070999c-0.3507-0.035301-0.7404-0.1064-1.0922-0.1064-1.4429 0-3.3931 0.3901-3.3931 2.7658v21.133h4.5252l11.116-15.601v15.601h5.1091v-23.686c-0.5072-0.1063-1.4818-0.2127-2.3797-0.2127-1.6771 0-2.4564 0.4965-3.1978 1.5958l-10.063 14.927z" />
	<path class="st0" d="m88.037 109.98h-5.9293l-8.7754 23.721c0.50729 0.1774 1.6772 0.3549 2.8859 0.3549 1.9891 0 3.0813-0.92201 3.6662-2.6242l5.3444-16.133 5.4599 16.239c0.586 1.6664 1.5994 2.5178 3.5885 2.5178 0.8191 0 1.5994-0.1064 2.6527-0.3549l-8.8929-23.721z" />
	<path class="st0" d="m110.19 134.65c-8.4246 0-11.701-5.8153-11.701-12.517 0-6.6303 3.705-12.303 12.013-12.303 8.2303 0 11.623 5.3894 11.623 12.268 0 6.8431-3.3931 12.552-11.935 12.552zm0.27309-20.92c-4.7973 0-6.4356 3.8646-6.4356 8.4031 0 4.5385 1.6383 8.6516 6.319 8.6516 4.6806 0 6.279-4.1131 6.279-8.6516 0-4.5385-1.5984-8.4031-6.1624-8.4031z" />
	<path class="st0" d="m134.03 125.58h-1.8724v8.4742h-5.3822v-23.615c2.3398-0.24799 4.9138-0.3544 6.9039-0.3544 7.6054 0 10.999 2.482 10.999 7.1974 0 6.1697-4.9138 8.2973-10.648 8.2973zm0.19537-12.056c-0.8192 0-1.5217 0.035301-2.1067 0.1064v8.5094h1.2875c3.7828 0 5.8117-1.1699 5.8117-4.6091 1e-7 -2.8721-2.0678-4.0067-4.9925-4.0067z" />
	<linearGradient id="g" x1="103.85" x2="103.85" y1="35.929" y2="85.699" gradientUnits="userSpaceOnUse">
		<stop stop-color="#CA1533" offset="0" />
		<stop stop-color="#EDC40D" offset="1" />
	</linearGradient>
	<path class="st1" d="m135.78 77.875l-25.055-37.105c-20.232-25.936-32.067-11.402-33.244-9.8183l-1.907e-4 0.020401-0.090996 0.127 0.28 0.4146c-0.0013123 7e-4 -0.0026093 0.0011005-0.0038147 0.0016994l-0.2788-0.4128-0.1465 0.2046 28.115 41.635 1.984e-4 0.024101-35.377-0.0032043s4.5843 21.765 29.047 22.423c0 0 1.2116-6.027e-4 9.753-6.027e-4h1.984e-4l17.702-2.975e-4c4.1512-0.0022964 7.9628-2.2945 9.9098-5.9613 1.9475-3.6667 1.7118-8.1087-0.61101-11.549z" />
	<linearGradient id="f" x1="63.57" x2="44.832" y1="98.824" y2="-25.057" gradientUnits="userSpaceOnUse">
		<stop stop-color="#AF008A" offset="0" />
		<stop stop-color="#DA0039" offset=".5" />
		<stop stop-color="#C11A32" offset="1" />
	</linearGradient>
	<path class="st2" d="m86.821 4.9433c-2.029-3.0055-5.3837-4.8379-9.0014-4.9357l1.068e-4 -0.0075c-0.04261-6e-4 -0.084808 0.0023-0.12731 0.0023-0.018196-3e-4 -0.036194-0.0021-0.054398-0.0023v0.0032c-3.5801 0.0113-7.0122 1.7801-9.1061 4.7403l-53.787 75.416c-3.5798 5.0632-9.7797 13.825-9.7797 13.825s22.012 7.6849 37.169-13.665l35.257-49.217 0.2788 0.4128c0.0012054-5.989e-4 0.0025024-9.995e-4 0.0038147-0.0016994l-0.28-0.4146 0.090996-0.127 1.907e-4 -0.020401c1.2286-1.6531 13.838-17.433 35.731 13.486 0.0094008-0.0037002-26.395-39.495-26.395-39.495z" />
		<linearGradient id="e" x1="78.671" x2="108.7" y1="84.12" y2="84.12" gradientUnits="userSpaceOnUse">
			<stop stop-color="#fff" offset="0" />
			<stop stop-color="#ccc" offset=".19232" />
			<stop stop-color="#3A3A3A" offset=".75466" />
			<stop offset="1" />
		</linearGradient>
		<path class="st3" d="m99.111 95.332s1.2115-6.027e-4 9.753-6.027e-4c14.084 0-3.2423-22.419-3.2423-22.419l-35.558-0.0031052c-1e-7 0 4.5843 21.765 29.048 22.423z" />
		<linearGradient id="d" x1="104.19" x2="98.464" y1="52.46" y2="14.633" gradientUnits="userSpaceOnUse">
			<stop stop-color="#fff" offset="0" />
			<stop offset="1" />
		</linearGradient>
		<path class="st4" d="m108.08 76.367l0.3516 0.2541 21.871-7.2915-0.0066986-0.009903-16.631-24.248c-23.326-33.437-36.28-13.983-36.28-13.983l28.304 41.915c1e-7 1.9e-6 1.034 1.3401 2.3905 3.3629z" />
		<linearGradient id="c" x1="44.914" x2="49.443" y1="105.74" y2="50.207" gradientUnits="userSpaceOnUse">
			<stop stop-color="#fff" offset="0" />
			<stop stop-color="#231F20" offset="1" />
		</linearGradient>
		<path class="st5" d="m77.82 8.17e-5c-3.5103 0-7.1584 1.7331-9.2878 4.7435l-53.787 75.416c-3.5798 5.0632-9.7797 13.825-9.7797 13.825s15.419 1.5647 30.575-19.785l25.025-37.498s21.331-37.299 32.697-22.22c0 0-6.0863-9.394-7.5604-10.943-2.2508-2.3658-5.161-3.5386-7.8821-3.5386z" />
			<linearGradient id="b" x1="111" x2="102.89" y1="59.136" y2="62.235" gradientUnits="userSpaceOnUse">
			<stop stop-color="#fff" offset="0" />
			<stop stop-color="#231F20" offset="1" />
		</linearGradient>
		<path class="st6" d="m135.75 77.883l-23.959-35.449c-10.053-13.486-18.643-17.84-25.563-16.782l31.729 47.298s17.326 22.444 3.2422 22.444l5.2522-3.967e-4c4.1512-0.0023041 7.9628-2.2944 9.9099-5.9613 1.9475-3.6667 1.7118-8.1087-0.61108-11.549z" />
	<linearGradient id="a" x1="119.59" x2="108.76" y1="49.6" y2="-21.987" gradientUnits="userSpaceOnUse">
		<stop stop-color="#fff" offset="0" />
		<stop offset="1" />
	</linearGradient>
	<polygon class="st7" points="114.84 46.44 114.83 46.444 125.85 62.744" />
</svg>