<?xml version="1.0" encoding="UTF-8"?>
<svg width="192.9" height="33.094" version="1.1" viewBox="0 0 192.89732 33.093601" xml:space="preserve" xmlns="http://www.w3.org/2000/svg" xmlns:cc="http://creativecommons.org/ns#" xmlns:dc="http://purl.org/dc/elements/1.1/" xmlns:rdf="http://www.w3.org/1999/02/22-rdf-syntax-ns#">
    <defs>
        <clipPath id="a">
            <path d="M 0,24.82 H 144.673 V 0 H 0 Z" />
        </clipPath>
    </defs>
    <g transform="matrix(1.3333 0 0 -1.3333 0 33.094)">
        <g clip-path="url(#a)">
            <g transform="translate(12.013 20.069)">
                <path d="m0 0-3.55-10.105h6.983zm6.669-19.466-2.223 5.815h-9.009l-2.146-5.815h-5.304l9.048 23.402c0.625 0.248 1.834 0.497 3.121 0.497 1.131 0 2.964-0.249 3.666-2.2l8.386-21.699z" fill="#575756" />
            </g>
            <g transform="translate(34.715,4.1127)">
                <path d="m0 0c3.549 0 5.694 0.639 5.694 3.617 0 2.553-2.067 3.51-5.031 3.51h-2.848v-7.127zm-0.195 17.055c-0.975 0-1.56-0.071-1.99-0.107v-6.594h2.575c2.535 0 4.095 1.524 4.095 3.758s-1.834 2.943-4.68 2.943m0.546-20.565h-7.879v23.579c2.652 0.248 4.993 0.39 7.177 0.39 7.84 0 10.297-2.233 10.297-6.063 0-3.084-2.223-4.787-3.939-5.354 1.871-0.461 5.148-1.666 5.148-5.603 0-5.46-4.251-6.949-10.804-6.949" fill="#575756" />
            </g>
            <g transform="translate(54.766 7.9779)">
                <path d="m0 0v16.346l-0.625 0.071c-0.351 0.035-0.74 0.106-1.092 0.106-1.443 0-3.393-0.39-3.393-2.765v-21.133h4.525l11.116 15.601v-15.601h5.11v23.686c-0.508 0.106-1.482 0.212-2.38 0.212-1.678 0-2.457-0.497-3.198-1.595z" fill="#575756" />
            </g>
            <g transform="translate(88.036 24.678)">
                <path d="m0 0h-5.929l-8.775-23.721c0.507-0.176 1.677-0.354 2.886-0.354 1.989 0 3.081 0.922 3.666 2.624l5.344 16.133 5.46-16.24c0.586-1.666 1.6-2.517 3.588-2.517 0.82 0 1.6 0.106 2.654 0.354z" fill="#575756" />
            </g>
            <g transform="translate(110.46 20.919)">
                <path d="m0 0c-4.797 0-6.436-3.864-6.436-8.402 0-4.539 1.639-8.653 6.32-8.653 4.68 0 6.279 4.114 6.279 8.653 0 4.538-1.599 8.402-6.163 8.402m-0.272-20.919c-8.425 0-11.702 5.815-11.702 12.517 0 6.63 3.705 12.302 12.013 12.302 8.231 0 11.624-5.388 11.624-12.267 0-6.843-3.393-12.552-11.935-12.552" fill="#575756" />
            </g>
            <g transform="translate(134.22 21.132)">
                <path d="m0 0c-0.819 0-1.522-0.035-2.107-0.106v-8.509h1.288c3.782 0 5.811 1.17 5.811 4.608 0 2.872-2.067 4.007-4.992 4.007m-0.195-12.056h-1.873v-8.473h-5.382v23.614c2.34 0.248 4.914 0.354 6.903 0.354 7.606 0 10.999-2.482 10.999-7.197 0-6.17-4.914-8.298-10.647-8.298" fill="#575756" />
            </g>
        </g>
    </g>
</svg>